<mxfile host="app.diagrams.net" modified="2023-11-20T06:57:29.723Z" agent="Mozilla/5.0 (Windows NT 10.0; Win64; x64) AppleWebKit/537.36 (KHTML, like Gecko) Chrome/119.0.0.0 Safari/537.36" etag="uWE60-g7_ICps8Ph9hs7" version="22.1.3" type="device">
  <diagram name="第 1 页" id="jEtxKbM4phd7YvFjF5oO">
    <mxGraphModel dx="11434" dy="833" grid="1" gridSize="10" guides="1" tooltips="1" connect="1" arrows="1" fold="1" page="1" pageScale="1" pageWidth="10000" pageHeight="10000" math="0" shadow="0">
      <root>
        <mxCell id="0" />
        <mxCell id="1" parent="0" />
        <mxCell id="5jNkxWglDAMmyHPoEOQR-1" value="&lt;font style=&quot;font-size: 24px;&quot;&gt;没有快照时&lt;/font&gt;" style="text;html=1;strokeColor=none;fillColor=none;align=center;verticalAlign=middle;whiteSpace=wrap;rounded=0;" vertex="1" parent="1">
          <mxGeometry x="-100" y="240" width="150" height="30" as="geometry" />
        </mxCell>
        <mxCell id="5jNkxWglDAMmyHPoEOQR-2" value="&lt;font style=&quot;font-size: 24px;&quot;&gt;加入快照后&lt;/font&gt;" style="text;html=1;strokeColor=none;fillColor=none;align=center;verticalAlign=middle;whiteSpace=wrap;rounded=0;" vertex="1" parent="1">
          <mxGeometry x="-95" y="480" width="140" height="30" as="geometry" />
        </mxCell>
        <mxCell id="5jNkxWglDAMmyHPoEOQR-3" value="" style="whiteSpace=wrap;html=1;aspect=fixed;fillColor=none;" vertex="1" parent="1">
          <mxGeometry x="120" y="280" width="80" height="80" as="geometry" />
        </mxCell>
        <mxCell id="5jNkxWglDAMmyHPoEOQR-4" value="&lt;font color=&quot;#ea6b66&quot; style=&quot;font-size: 18px;&quot;&gt;log下标&lt;/font&gt;" style="text;html=1;strokeColor=none;fillColor=none;align=center;verticalAlign=middle;whiteSpace=wrap;rounded=0;" vertex="1" parent="1">
          <mxGeometry x="30" y="370" width="80" height="30" as="geometry" />
        </mxCell>
        <mxCell id="5jNkxWglDAMmyHPoEOQR-5" value="&lt;font color=&quot;#0a8dff&quot; style=&quot;font-size: 18px;&quot;&gt;index&lt;/font&gt;" style="text;html=1;strokeColor=none;fillColor=none;align=center;verticalAlign=middle;whiteSpace=wrap;rounded=0;" vertex="1" parent="1">
          <mxGeometry x="30" y="290" width="80" height="30" as="geometry" />
        </mxCell>
        <mxCell id="5jNkxWglDAMmyHPoEOQR-7" value="&lt;font color=&quot;#0a8dff&quot; style=&quot;font-size: 18px;&quot;&gt;0&lt;/font&gt;" style="text;html=1;strokeColor=none;fillColor=none;align=center;verticalAlign=middle;whiteSpace=wrap;rounded=0;" vertex="1" parent="1">
          <mxGeometry x="120" y="290" width="80" height="30" as="geometry" />
        </mxCell>
        <mxCell id="5jNkxWglDAMmyHPoEOQR-8" value="&lt;font color=&quot;#ea6b66&quot; style=&quot;font-size: 18px;&quot;&gt;0&lt;/font&gt;" style="text;html=1;strokeColor=none;fillColor=none;align=center;verticalAlign=middle;whiteSpace=wrap;rounded=0;" vertex="1" parent="1">
          <mxGeometry x="120" y="370" width="80" height="30" as="geometry" />
        </mxCell>
        <mxCell id="5jNkxWglDAMmyHPoEOQR-9" value="&lt;font color=&quot;#67ab9f&quot; style=&quot;font-size: 18px;&quot;&gt;term&lt;/font&gt;" style="text;html=1;strokeColor=none;fillColor=none;align=center;verticalAlign=middle;whiteSpace=wrap;rounded=0;" vertex="1" parent="1">
          <mxGeometry x="30" y="330" width="80" height="30" as="geometry" />
        </mxCell>
        <mxCell id="5jNkxWglDAMmyHPoEOQR-10" value="&lt;font color=&quot;#67ab9f&quot; style=&quot;font-size: 18px;&quot;&gt;-1&lt;/font&gt;" style="text;html=1;strokeColor=none;fillColor=none;align=center;verticalAlign=middle;whiteSpace=wrap;rounded=0;" vertex="1" parent="1">
          <mxGeometry x="120" y="330" width="80" height="30" as="geometry" />
        </mxCell>
        <mxCell id="5jNkxWglDAMmyHPoEOQR-11" value="" style="whiteSpace=wrap;html=1;aspect=fixed;fillColor=none;" vertex="1" parent="1">
          <mxGeometry x="200" y="280" width="80" height="80" as="geometry" />
        </mxCell>
        <mxCell id="5jNkxWglDAMmyHPoEOQR-12" value="&lt;font color=&quot;#0a8dff&quot; style=&quot;font-size: 18px;&quot;&gt;1&lt;/font&gt;" style="text;html=1;strokeColor=none;fillColor=none;align=center;verticalAlign=middle;whiteSpace=wrap;rounded=0;" vertex="1" parent="1">
          <mxGeometry x="200" y="290" width="80" height="30" as="geometry" />
        </mxCell>
        <mxCell id="5jNkxWglDAMmyHPoEOQR-13" value="&lt;font color=&quot;#ea6b66&quot; style=&quot;font-size: 18px;&quot;&gt;1&lt;/font&gt;" style="text;html=1;strokeColor=none;fillColor=none;align=center;verticalAlign=middle;whiteSpace=wrap;rounded=0;" vertex="1" parent="1">
          <mxGeometry x="200" y="370" width="80" height="30" as="geometry" />
        </mxCell>
        <mxCell id="5jNkxWglDAMmyHPoEOQR-14" value="&lt;font color=&quot;#67ab9f&quot; style=&quot;font-size: 18px;&quot;&gt;1&lt;/font&gt;" style="text;html=1;strokeColor=none;fillColor=none;align=center;verticalAlign=middle;whiteSpace=wrap;rounded=0;" vertex="1" parent="1">
          <mxGeometry x="200" y="330" width="80" height="30" as="geometry" />
        </mxCell>
        <mxCell id="5jNkxWglDAMmyHPoEOQR-15" value="" style="whiteSpace=wrap;html=1;aspect=fixed;fillColor=none;" vertex="1" parent="1">
          <mxGeometry x="280" y="280" width="80" height="80" as="geometry" />
        </mxCell>
        <mxCell id="5jNkxWglDAMmyHPoEOQR-16" value="&lt;font color=&quot;#0a8dff&quot; style=&quot;font-size: 18px;&quot;&gt;2&lt;/font&gt;" style="text;html=1;strokeColor=none;fillColor=none;align=center;verticalAlign=middle;whiteSpace=wrap;rounded=0;" vertex="1" parent="1">
          <mxGeometry x="280" y="290" width="80" height="30" as="geometry" />
        </mxCell>
        <mxCell id="5jNkxWglDAMmyHPoEOQR-17" value="&lt;font color=&quot;#ea6b66&quot; style=&quot;font-size: 18px;&quot;&gt;2&lt;/font&gt;" style="text;html=1;strokeColor=none;fillColor=none;align=center;verticalAlign=middle;whiteSpace=wrap;rounded=0;" vertex="1" parent="1">
          <mxGeometry x="280" y="370" width="80" height="30" as="geometry" />
        </mxCell>
        <mxCell id="5jNkxWglDAMmyHPoEOQR-18" value="&lt;font color=&quot;#67ab9f&quot; style=&quot;font-size: 18px;&quot;&gt;1&lt;/font&gt;" style="text;html=1;strokeColor=none;fillColor=none;align=center;verticalAlign=middle;whiteSpace=wrap;rounded=0;" vertex="1" parent="1">
          <mxGeometry x="280" y="330" width="80" height="30" as="geometry" />
        </mxCell>
        <mxCell id="5jNkxWglDAMmyHPoEOQR-19" value="" style="whiteSpace=wrap;html=1;aspect=fixed;fillColor=none;" vertex="1" parent="1">
          <mxGeometry x="360" y="280" width="80" height="80" as="geometry" />
        </mxCell>
        <mxCell id="5jNkxWglDAMmyHPoEOQR-20" value="&lt;font color=&quot;#0a8dff&quot; style=&quot;font-size: 18px;&quot;&gt;3&lt;/font&gt;" style="text;html=1;strokeColor=none;fillColor=none;align=center;verticalAlign=middle;whiteSpace=wrap;rounded=0;" vertex="1" parent="1">
          <mxGeometry x="360" y="290" width="80" height="30" as="geometry" />
        </mxCell>
        <mxCell id="5jNkxWglDAMmyHPoEOQR-21" value="&lt;font color=&quot;#ea6b66&quot; style=&quot;font-size: 18px;&quot;&gt;3&lt;/font&gt;" style="text;html=1;strokeColor=none;fillColor=none;align=center;verticalAlign=middle;whiteSpace=wrap;rounded=0;" vertex="1" parent="1">
          <mxGeometry x="360" y="370" width="80" height="30" as="geometry" />
        </mxCell>
        <mxCell id="5jNkxWglDAMmyHPoEOQR-22" value="&lt;font color=&quot;#67ab9f&quot; style=&quot;font-size: 18px;&quot;&gt;2&lt;/font&gt;" style="text;html=1;strokeColor=none;fillColor=none;align=center;verticalAlign=middle;whiteSpace=wrap;rounded=0;" vertex="1" parent="1">
          <mxGeometry x="360" y="330" width="80" height="30" as="geometry" />
        </mxCell>
        <mxCell id="5jNkxWglDAMmyHPoEOQR-23" value="" style="whiteSpace=wrap;html=1;aspect=fixed;fillColor=none;" vertex="1" parent="1">
          <mxGeometry x="440" y="280" width="80" height="80" as="geometry" />
        </mxCell>
        <mxCell id="5jNkxWglDAMmyHPoEOQR-24" value="&lt;font color=&quot;#0a8dff&quot; style=&quot;font-size: 18px;&quot;&gt;4&lt;/font&gt;" style="text;html=1;strokeColor=none;fillColor=none;align=center;verticalAlign=middle;whiteSpace=wrap;rounded=0;" vertex="1" parent="1">
          <mxGeometry x="440" y="290" width="80" height="30" as="geometry" />
        </mxCell>
        <mxCell id="5jNkxWglDAMmyHPoEOQR-25" value="&lt;font color=&quot;#ea6b66&quot; style=&quot;font-size: 18px;&quot;&gt;4&lt;/font&gt;" style="text;html=1;strokeColor=none;fillColor=none;align=center;verticalAlign=middle;whiteSpace=wrap;rounded=0;" vertex="1" parent="1">
          <mxGeometry x="440" y="370" width="80" height="30" as="geometry" />
        </mxCell>
        <mxCell id="5jNkxWglDAMmyHPoEOQR-26" value="&lt;font color=&quot;#67ab9f&quot; style=&quot;font-size: 18px;&quot;&gt;2&lt;/font&gt;" style="text;html=1;strokeColor=none;fillColor=none;align=center;verticalAlign=middle;whiteSpace=wrap;rounded=0;" vertex="1" parent="1">
          <mxGeometry x="440" y="330" width="80" height="30" as="geometry" />
        </mxCell>
        <mxCell id="5jNkxWglDAMmyHPoEOQR-27" value="" style="whiteSpace=wrap;html=1;aspect=fixed;fillColor=none;" vertex="1" parent="1">
          <mxGeometry x="520" y="280" width="80" height="80" as="geometry" />
        </mxCell>
        <mxCell id="5jNkxWglDAMmyHPoEOQR-28" value="&lt;font color=&quot;#0a8dff&quot; style=&quot;font-size: 18px;&quot;&gt;5&lt;/font&gt;" style="text;html=1;strokeColor=none;fillColor=none;align=center;verticalAlign=middle;whiteSpace=wrap;rounded=0;" vertex="1" parent="1">
          <mxGeometry x="520" y="290" width="80" height="30" as="geometry" />
        </mxCell>
        <mxCell id="5jNkxWglDAMmyHPoEOQR-29" value="&lt;font color=&quot;#ea6b66&quot; style=&quot;font-size: 18px;&quot;&gt;5&lt;/font&gt;" style="text;html=1;strokeColor=none;fillColor=none;align=center;verticalAlign=middle;whiteSpace=wrap;rounded=0;" vertex="1" parent="1">
          <mxGeometry x="520" y="370" width="80" height="30" as="geometry" />
        </mxCell>
        <mxCell id="5jNkxWglDAMmyHPoEOQR-30" value="&lt;font color=&quot;#67ab9f&quot; style=&quot;font-size: 18px;&quot;&gt;2&lt;/font&gt;" style="text;html=1;strokeColor=none;fillColor=none;align=center;verticalAlign=middle;whiteSpace=wrap;rounded=0;" vertex="1" parent="1">
          <mxGeometry x="520" y="330" width="80" height="30" as="geometry" />
        </mxCell>
        <mxCell id="5jNkxWglDAMmyHPoEOQR-32" value="" style="whiteSpace=wrap;html=1;aspect=fixed;fillColor=none;" vertex="1" parent="1">
          <mxGeometry x="120" y="520" width="80" height="80" as="geometry" />
        </mxCell>
        <mxCell id="5jNkxWglDAMmyHPoEOQR-33" value="&lt;font color=&quot;#ea6b66&quot; style=&quot;font-size: 18px;&quot;&gt;log下标&lt;/font&gt;" style="text;html=1;strokeColor=none;fillColor=none;align=center;verticalAlign=middle;whiteSpace=wrap;rounded=0;" vertex="1" parent="1">
          <mxGeometry x="30" y="610" width="80" height="30" as="geometry" />
        </mxCell>
        <mxCell id="5jNkxWglDAMmyHPoEOQR-34" value="&lt;font color=&quot;#0a8dff&quot; style=&quot;font-size: 18px;&quot;&gt;index&lt;/font&gt;" style="text;html=1;strokeColor=none;fillColor=none;align=center;verticalAlign=middle;whiteSpace=wrap;rounded=0;" vertex="1" parent="1">
          <mxGeometry x="30" y="530" width="80" height="30" as="geometry" />
        </mxCell>
        <mxCell id="5jNkxWglDAMmyHPoEOQR-35" value="&lt;font color=&quot;#0a8dff&quot; style=&quot;font-size: 18px;&quot;&gt;20&lt;/font&gt;" style="text;html=1;strokeColor=none;fillColor=none;align=center;verticalAlign=middle;whiteSpace=wrap;rounded=0;" vertex="1" parent="1">
          <mxGeometry x="120" y="530" width="80" height="30" as="geometry" />
        </mxCell>
        <mxCell id="5jNkxWglDAMmyHPoEOQR-36" value="&lt;font color=&quot;#ea6b66&quot; style=&quot;font-size: 18px;&quot;&gt;0&lt;/font&gt;" style="text;html=1;strokeColor=none;fillColor=none;align=center;verticalAlign=middle;whiteSpace=wrap;rounded=0;" vertex="1" parent="1">
          <mxGeometry x="120" y="610" width="80" height="30" as="geometry" />
        </mxCell>
        <mxCell id="5jNkxWglDAMmyHPoEOQR-37" value="&lt;font color=&quot;#67ab9f&quot; style=&quot;font-size: 18px;&quot;&gt;term&lt;/font&gt;" style="text;html=1;strokeColor=none;fillColor=none;align=center;verticalAlign=middle;whiteSpace=wrap;rounded=0;" vertex="1" parent="1">
          <mxGeometry x="30" y="570" width="80" height="30" as="geometry" />
        </mxCell>
        <mxCell id="5jNkxWglDAMmyHPoEOQR-38" value="&lt;font color=&quot;#67ab9f&quot; style=&quot;font-size: 18px;&quot;&gt;4&lt;/font&gt;" style="text;html=1;strokeColor=none;fillColor=none;align=center;verticalAlign=middle;whiteSpace=wrap;rounded=0;" vertex="1" parent="1">
          <mxGeometry x="120" y="570" width="80" height="30" as="geometry" />
        </mxCell>
        <mxCell id="5jNkxWglDAMmyHPoEOQR-39" value="" style="whiteSpace=wrap;html=1;aspect=fixed;fillColor=none;" vertex="1" parent="1">
          <mxGeometry x="200" y="520" width="80" height="80" as="geometry" />
        </mxCell>
        <mxCell id="5jNkxWglDAMmyHPoEOQR-40" value="&lt;font color=&quot;#0a8dff&quot; style=&quot;font-size: 18px;&quot;&gt;21&lt;/font&gt;" style="text;html=1;strokeColor=none;fillColor=none;align=center;verticalAlign=middle;whiteSpace=wrap;rounded=0;" vertex="1" parent="1">
          <mxGeometry x="200" y="530" width="80" height="30" as="geometry" />
        </mxCell>
        <mxCell id="5jNkxWglDAMmyHPoEOQR-41" value="&lt;font color=&quot;#ea6b66&quot; style=&quot;font-size: 18px;&quot;&gt;1&lt;/font&gt;" style="text;html=1;strokeColor=none;fillColor=none;align=center;verticalAlign=middle;whiteSpace=wrap;rounded=0;" vertex="1" parent="1">
          <mxGeometry x="200" y="610" width="80" height="30" as="geometry" />
        </mxCell>
        <mxCell id="5jNkxWglDAMmyHPoEOQR-42" value="&lt;font color=&quot;#67ab9f&quot; style=&quot;font-size: 18px;&quot;&gt;4&lt;/font&gt;" style="text;html=1;strokeColor=none;fillColor=none;align=center;verticalAlign=middle;whiteSpace=wrap;rounded=0;" vertex="1" parent="1">
          <mxGeometry x="200" y="570" width="80" height="30" as="geometry" />
        </mxCell>
        <mxCell id="5jNkxWglDAMmyHPoEOQR-43" value="" style="whiteSpace=wrap;html=1;aspect=fixed;fillColor=none;" vertex="1" parent="1">
          <mxGeometry x="280" y="520" width="80" height="80" as="geometry" />
        </mxCell>
        <mxCell id="5jNkxWglDAMmyHPoEOQR-44" value="&lt;font color=&quot;#0a8dff&quot; style=&quot;font-size: 18px;&quot;&gt;22&lt;/font&gt;" style="text;html=1;strokeColor=none;fillColor=none;align=center;verticalAlign=middle;whiteSpace=wrap;rounded=0;" vertex="1" parent="1">
          <mxGeometry x="280" y="530" width="80" height="30" as="geometry" />
        </mxCell>
        <mxCell id="5jNkxWglDAMmyHPoEOQR-45" value="&lt;font color=&quot;#ea6b66&quot; style=&quot;font-size: 18px;&quot;&gt;2&lt;/font&gt;" style="text;html=1;strokeColor=none;fillColor=none;align=center;verticalAlign=middle;whiteSpace=wrap;rounded=0;" vertex="1" parent="1">
          <mxGeometry x="280" y="610" width="80" height="30" as="geometry" />
        </mxCell>
        <mxCell id="5jNkxWglDAMmyHPoEOQR-46" value="&lt;font color=&quot;#67ab9f&quot; style=&quot;font-size: 18px;&quot;&gt;4&lt;/font&gt;" style="text;html=1;strokeColor=none;fillColor=none;align=center;verticalAlign=middle;whiteSpace=wrap;rounded=0;" vertex="1" parent="1">
          <mxGeometry x="280" y="570" width="80" height="30" as="geometry" />
        </mxCell>
        <mxCell id="5jNkxWglDAMmyHPoEOQR-47" value="" style="whiteSpace=wrap;html=1;aspect=fixed;fillColor=none;" vertex="1" parent="1">
          <mxGeometry x="360" y="520" width="80" height="80" as="geometry" />
        </mxCell>
        <mxCell id="5jNkxWglDAMmyHPoEOQR-48" value="&lt;font color=&quot;#0a8dff&quot; style=&quot;font-size: 18px;&quot;&gt;23&lt;/font&gt;" style="text;html=1;strokeColor=none;fillColor=none;align=center;verticalAlign=middle;whiteSpace=wrap;rounded=0;" vertex="1" parent="1">
          <mxGeometry x="360" y="530" width="80" height="30" as="geometry" />
        </mxCell>
        <mxCell id="5jNkxWglDAMmyHPoEOQR-49" value="&lt;font color=&quot;#ea6b66&quot; style=&quot;font-size: 18px;&quot;&gt;3&lt;/font&gt;" style="text;html=1;strokeColor=none;fillColor=none;align=center;verticalAlign=middle;whiteSpace=wrap;rounded=0;" vertex="1" parent="1">
          <mxGeometry x="360" y="610" width="80" height="30" as="geometry" />
        </mxCell>
        <mxCell id="5jNkxWglDAMmyHPoEOQR-50" value="&lt;font color=&quot;#67ab9f&quot; style=&quot;font-size: 18px;&quot;&gt;4&lt;/font&gt;" style="text;html=1;strokeColor=none;fillColor=none;align=center;verticalAlign=middle;whiteSpace=wrap;rounded=0;" vertex="1" parent="1">
          <mxGeometry x="360" y="570" width="80" height="30" as="geometry" />
        </mxCell>
        <mxCell id="5jNkxWglDAMmyHPoEOQR-51" value="" style="whiteSpace=wrap;html=1;aspect=fixed;fillColor=none;" vertex="1" parent="1">
          <mxGeometry x="440" y="520" width="80" height="80" as="geometry" />
        </mxCell>
        <mxCell id="5jNkxWglDAMmyHPoEOQR-52" value="&lt;font color=&quot;#0a8dff&quot; style=&quot;font-size: 18px;&quot;&gt;24&lt;/font&gt;" style="text;html=1;strokeColor=none;fillColor=none;align=center;verticalAlign=middle;whiteSpace=wrap;rounded=0;" vertex="1" parent="1">
          <mxGeometry x="440" y="530" width="80" height="30" as="geometry" />
        </mxCell>
        <mxCell id="5jNkxWglDAMmyHPoEOQR-53" value="&lt;font color=&quot;#ea6b66&quot; style=&quot;font-size: 18px;&quot;&gt;4&lt;/font&gt;" style="text;html=1;strokeColor=none;fillColor=none;align=center;verticalAlign=middle;whiteSpace=wrap;rounded=0;" vertex="1" parent="1">
          <mxGeometry x="440" y="610" width="80" height="30" as="geometry" />
        </mxCell>
        <mxCell id="5jNkxWglDAMmyHPoEOQR-54" value="&lt;font color=&quot;#67ab9f&quot; style=&quot;font-size: 18px;&quot;&gt;5&lt;/font&gt;" style="text;html=1;strokeColor=none;fillColor=none;align=center;verticalAlign=middle;whiteSpace=wrap;rounded=0;" vertex="1" parent="1">
          <mxGeometry x="440" y="570" width="80" height="30" as="geometry" />
        </mxCell>
        <mxCell id="5jNkxWglDAMmyHPoEOQR-55" value="" style="whiteSpace=wrap;html=1;aspect=fixed;fillColor=none;" vertex="1" parent="1">
          <mxGeometry x="520" y="520" width="80" height="80" as="geometry" />
        </mxCell>
        <mxCell id="5jNkxWglDAMmyHPoEOQR-56" value="&lt;font color=&quot;#0a8dff&quot; style=&quot;font-size: 18px;&quot;&gt;25&lt;/font&gt;" style="text;html=1;strokeColor=none;fillColor=none;align=center;verticalAlign=middle;whiteSpace=wrap;rounded=0;" vertex="1" parent="1">
          <mxGeometry x="520" y="530" width="80" height="30" as="geometry" />
        </mxCell>
        <mxCell id="5jNkxWglDAMmyHPoEOQR-57" value="&lt;font color=&quot;#ea6b66&quot; style=&quot;font-size: 18px;&quot;&gt;5&lt;/font&gt;" style="text;html=1;strokeColor=none;fillColor=none;align=center;verticalAlign=middle;whiteSpace=wrap;rounded=0;" vertex="1" parent="1">
          <mxGeometry x="520" y="610" width="80" height="30" as="geometry" />
        </mxCell>
        <mxCell id="5jNkxWglDAMmyHPoEOQR-58" value="&lt;font color=&quot;#67ab9f&quot; style=&quot;font-size: 18px;&quot;&gt;5&lt;/font&gt;" style="text;html=1;strokeColor=none;fillColor=none;align=center;verticalAlign=middle;whiteSpace=wrap;rounded=0;" vertex="1" parent="1">
          <mxGeometry x="520" y="570" width="80" height="30" as="geometry" />
        </mxCell>
        <mxCell id="5jNkxWglDAMmyHPoEOQR-59" value="" style="rounded=1;whiteSpace=wrap;html=1;fillColor=none;dashed=1;" vertex="1" parent="1">
          <mxGeometry x="112.5" y="260" width="95" height="140" as="geometry" />
        </mxCell>
        <mxCell id="5jNkxWglDAMmyHPoEOQR-60" value="" style="rounded=1;whiteSpace=wrap;html=1;fillColor=none;dashed=1;" vertex="1" parent="1">
          <mxGeometry x="112.5" y="500" width="95" height="140" as="geometry" />
        </mxCell>
        <mxCell id="5jNkxWglDAMmyHPoEOQR-61" value="" style="shape=flexArrow;endArrow=classic;html=1;rounded=0;dashed=1;" edge="1" parent="1">
          <mxGeometry width="50" height="50" relative="1" as="geometry">
            <mxPoint x="159.5" y="260" as="sourcePoint" />
            <mxPoint x="159.5" y="200" as="targetPoint" />
          </mxGeometry>
        </mxCell>
        <mxCell id="5jNkxWglDAMmyHPoEOQR-62" value="" style="shape=flexArrow;endArrow=classic;html=1;rounded=0;dashed=1;" edge="1" parent="1">
          <mxGeometry width="50" height="50" relative="1" as="geometry">
            <mxPoint x="159.5" y="640" as="sourcePoint" />
            <mxPoint x="159.5" y="690" as="targetPoint" />
          </mxGeometry>
        </mxCell>
        <mxCell id="5jNkxWglDAMmyHPoEOQR-63" value="&lt;font style=&quot;font-size: 18px;&quot;&gt;占位日志（无实意）&lt;/font&gt;" style="text;html=1;strokeColor=none;fillColor=none;align=center;verticalAlign=middle;whiteSpace=wrap;rounded=0;" vertex="1" parent="1">
          <mxGeometry x="110" y="160" width="100" height="30" as="geometry" />
        </mxCell>
        <mxCell id="5jNkxWglDAMmyHPoEOQR-64" value="&lt;font style=&quot;font-size: 18px;&quot;&gt;lastIncludedIndex&lt;br&gt;lastIncludedTerm&lt;br&gt;&lt;/font&gt;" style="text;html=1;strokeColor=none;fillColor=none;align=center;verticalAlign=middle;whiteSpace=wrap;rounded=0;" vertex="1" parent="1">
          <mxGeometry x="110" y="700" width="100" height="30" as="geometry" />
        </mxCell>
        <mxCell id="5jNkxWglDAMmyHPoEOQR-65" value="" style="endArrow=classic;html=1;rounded=0;exitX=1;exitY=0.25;exitDx=0;exitDy=0;dashed=1;dashPattern=8 8;" edge="1" parent="1" source="5jNkxWglDAMmyHPoEOQR-28">
          <mxGeometry width="50" height="50" relative="1" as="geometry">
            <mxPoint x="640" y="260" as="sourcePoint" />
            <mxPoint x="700" y="340" as="targetPoint" />
          </mxGeometry>
        </mxCell>
        <mxCell id="5jNkxWglDAMmyHPoEOQR-66" value="" style="endArrow=classic;html=1;rounded=0;exitX=1;exitY=0.5;exitDx=0;exitDy=0;dashed=1;dashPattern=8 8;" edge="1" parent="1" source="5jNkxWglDAMmyHPoEOQR-29">
          <mxGeometry width="50" height="50" relative="1" as="geometry">
            <mxPoint x="610" y="308" as="sourcePoint" />
            <mxPoint x="700" y="340" as="targetPoint" />
          </mxGeometry>
        </mxCell>
        <mxCell id="5jNkxWglDAMmyHPoEOQR-67" value="" style="endArrow=classic;html=1;rounded=0;exitX=1;exitY=0.25;exitDx=0;exitDy=0;dashed=1;dashPattern=8 8;" edge="1" parent="1" source="5jNkxWglDAMmyHPoEOQR-56">
          <mxGeometry width="50" height="50" relative="1" as="geometry">
            <mxPoint x="610" y="308" as="sourcePoint" />
            <mxPoint x="700" y="580" as="targetPoint" />
          </mxGeometry>
        </mxCell>
        <mxCell id="5jNkxWglDAMmyHPoEOQR-68" value="" style="endArrow=classic;html=1;rounded=0;exitX=1;exitY=0.25;exitDx=0;exitDy=0;dashed=1;dashPattern=8 8;" edge="1" parent="1" source="5jNkxWglDAMmyHPoEOQR-57">
          <mxGeometry width="50" height="50" relative="1" as="geometry">
            <mxPoint x="610" y="548" as="sourcePoint" />
            <mxPoint x="700" y="580" as="targetPoint" />
          </mxGeometry>
        </mxCell>
        <mxCell id="5jNkxWglDAMmyHPoEOQR-69" value="&lt;span style=&quot;font-size: 18px;&quot;&gt;存在对应关系&lt;/span&gt;" style="text;html=1;strokeColor=none;fillColor=none;align=center;verticalAlign=middle;whiteSpace=wrap;rounded=0;" vertex="1" parent="1">
          <mxGeometry x="700" y="330" width="120" height="30" as="geometry" />
        </mxCell>
        <mxCell id="5jNkxWglDAMmyHPoEOQR-70" value="&lt;span style=&quot;font-size: 18px;&quot;&gt;log下标 = index - lastIncludedIndex&lt;/span&gt;" style="text;html=1;strokeColor=none;fillColor=none;align=center;verticalAlign=middle;whiteSpace=wrap;rounded=0;" vertex="1" parent="1">
          <mxGeometry x="700" y="570" width="290" height="30" as="geometry" />
        </mxCell>
      </root>
    </mxGraphModel>
  </diagram>
</mxfile>
